

 <svg  xmlns="http://www.w3.org/2000/svg"  viewBox="0 0 1024.000000 900.000000"> <g transform="translate(-20.000000,970.000000) scale(0.100000,-0.100000)" fill="#000000" stroke="none"> <path d="M2672 9088 c-7 -9 -12 -61 -14 -134 l-3 -119 -62 -3 c-35 -2 -63 1 -63 5 0 28 -41 238 -47 244 -8 7 -130 -14 -140 -25 -3 -2 5 -55 17 -116 12 -61 20 -116 17 -124 -5 -13 -78 -36 -114 -36 -15 0 -27 24 -58 106 -21 58 -44 112 -51 119 -10 10 -25 9 -73 -7 -34 -11 -61 -24 -61 -30 0 -6 19 -60 41 -120 23 -60 40 -111 38 -113 -2 -1 -32 -14 -66 -28 l-62 -25 -57 104 c-30 58 -62 108 -69 110 -16 7 -114 -42 -121 -60 -3 -8 20 -61 50 -118 31 -58 56 -107 56 -111 0 -11 -124 -88 -136 -83 -6 2 -42 45 -79 95 -37 50 -71 91 -76 91 -5 0 -32 -21 -61 -46 -29 -26 -54 -48 -56 -49 -2 -2 31 -45 72 -96 l76 -93 -33 -34 c-61 -64 -60 -64 -159 34 l-89 89 -50 -53 c-27 -29 -49 -60 -49 -67 0 -8 33 -40 72 -73 40 -33 84 -71 97 -85 l23 -26 -38 -45 c-43 -52 -43 -52 -150 27 -104 76 -97 76 -144 8 -22 -33 -40 -65 -40 -70 0 -6 45 -41 100 -77 55 -37 100 -73 100 -81 0 -13 -49 -113 -55 -113 -2 0 -53 22 -114 49 -78 35 -113 46 -118 38 -21 -32 -61 -133 -55 -138 4 -3 54 -25 111 -49 57 -24 105 -49 107 -55 8 -19 -33 -120 -47 -118 -8 1 -61 12 -119 26 -62 14 -109 21 -115 16 -13 -12 -35 -88 -35 -121 0 -24 5 -28 57 -38 101 -21 175 -39 180 -44 3 -3 2 -32 -2 -65 l-7 -61 -128 0 -127 0 -6 -67 c-4 -37 -3 -71 1 -75 4 -4 62 -10 130 -14 118 -7 123 -8 127 -31 3 -12 7 -34 10 -47 7 -34 -4 -56 -27 -56 -31 0 -222 -40 -230 -49 -8 -7 9 -119 20 -138 5 -8 34 -6 102 8 52 11 108 18 125 17 27 -3 31 -7 42 -58 6 -30 9 -58 5 -61 -4 -4 -60 -23 -125 -43 -67 -21 -117 -42 -116 -49 1 -34 46 -132 59 -130 8 0 60 15 115 32 55 17 105 31 111 31 14 0 58 -105 50 -118 -3 -5 -51 -29 -107 -53 -56 -24 -103 -48 -106 -55 -4 -12 56 -144 66 -144 4 0 55 24 115 53 l108 54 35 -54 c18 -29 31 -58 28 -63 -3 -5 -44 -37 -90 -71 -47 -34 -85 -66 -85 -71 0 -17 61 -118 71 -118 13 0 74 40 143 94 33 25 62 46 65 46 10 0 91 -98 91 -109 0 -6 -34 -48 -75 -92 -41 -45 -75 -89 -75 -98 0 -9 20 -34 45 -54 55 -46 58 -45 150 58 37 41 73 75 79 75 6 0 33 -20 61 -44 l49 -43 -62 -81 c-34 -44 -62 -86 -62 -94 0 -12 19 -26 88 -66 30 -17 43 -6 119 96 l54 73 26 -17 c15 -9 41 -25 60 -36 18 -11 33 -22 33 -25 0 -3 -22 -49 -50 -103 -37 -73 -46 -101 -37 -107 23 -18 98 -53 112 -53 9 0 34 40 62 98 26 53 49 99 50 101 5 7 117 -30 124 -41 3 -5 -7 -58 -22 -116 -15 -59 -25 -110 -21 -113 11 -10 123 -41 129 -36 2 3 19 51 37 107 19 56 38 106 43 111 6 6 31 5 67 -3 l59 -11 -8 -106 c-3 -58 -7 -110 -8 -116 -3 -15 125 -38 134 -24 4 6 10 39 13 73 10 84 16 129 21 144 3 8 25 12 65 12 71 0 71 0 90 -124 17 -111 14 -107 73 -100 71 8 87 18 82 52 -12 70 -23 176 -20 183 3 4 22 10 42 13 21 4 50 9 65 12 26 5 27 3 58 -92 17 -54 33 -101 35 -105 7 -10 126 22 131 35 2 6 -6 54 -19 106 -13 52 -21 98 -18 102 4 4 33 16 64 27 54 19 58 19 64 3 11 -30 78 -176 88 -194 13 -22 42 -25 88 -9 35 12 45 11 112 -14 41 -15 78 -32 84 -39 13 -15 -7 -96 -25 -103 -14 -5 -183 45 -198 59 -6 4 -13 8 -18 8 -7 0 -48 -121 -48 -144 0 -7 40 -22 93 -36 144 -36 134 -29 127 -94 -3 -30 -8 -58 -11 -60 -3 -3 -43 -6 -90 -7 -138 -2 -139 -2 -139 -60 0 -86 4 -89 130 -89 l108 0 6 -30 c19 -96 20 -89 -11 -96 -27 -6 -119 -30 -155 -40 -10 -3 -25 -12 -33 -20 -13 -13 -12 -20 4 -62 10 -26 20 -54 24 -64 5 -14 15 -13 99 14 51 16 101 32 110 35 12 4 24 -9 43 -47 15 -29 24 -57 22 -64 -3 -6 -41 -30 -86 -54 -44 -24 -83 -47 -86 -52 -12 -19 54 -120 79 -120 5 0 45 16 88 37 76 35 79 36 93 17 19 -26 60 -101 50 -91 -10 8 -105 -81 -105 -98 0 -15 93 -105 107 -105 7 0 28 14 48 31 20 18 38 29 42 26 7 -8 -62 -99 -106 -141 l-31 -30 -43 21 c-23 11 -68 28 -99 37 -32 9 -58 21 -58 26 0 11 38 185 46 211 3 12 -9 22 -43 36 -101 43 -95 46 -122 -75 -35 -161 -28 -152 -103 -138 l-63 11 -3 133 -3 132 -62 0 c-36 0 -68 -5 -75 -12 -8 -8 -12 -53 -12 -134 0 -137 4 -130 -80 -136 l-45 -3 -17 83 c-21 99 -42 152 -60 152 -7 0 -35 -6 -63 -14 -50 -13 -50 -13 -48 -52 2 -22 14 -77 27 -122 17 -59 21 -84 12 -89 -9 -6 -106 -43 -112 -43 -1 0 -21 47 -45 106 -49 117 -42 114 -133 74 -51 -21 -52 -24 -32 -66 8 -16 28 -62 46 -103 l32 -74 -29 -23 c-15 -13 -32 -23 -37 -24 -5 0 -18 -8 -28 -17 -11 -10 -22 -13 -26 -7 -5 5 -39 48 -76 96 -37 49 -69 88 -72 88 -9 0 -114 -81 -114 -88 0 -7 19 -31 110 -144 17 -20 30 -41 30 -45 0 -5 -21 -30 -47 -55 l-48 -47 -83 70 c-70 59 -86 68 -103 59 -10 -6 -19 -15 -19 -20 0 -5 -14 -25 -31 -44 l-30 -35 33 -29 c18 -16 56 -48 85 -70 28 -23 54 -46 58 -52 6 -10 -45 -110 -57 -110 -9 0 -181 90 -192 101 -21 19 -37 7 -66 -51 -16 -33 -30 -62 -30 -65 0 -3 52 -31 115 -61 63 -31 115 -60 115 -65 0 -5 -6 -27 -12 -49 -12 -37 -16 -40 -48 -40 -19 0 -71 9 -115 19 -44 11 -84 16 -89 11 -11 -11 -37 -123 -30 -130 3 -3 58 -17 122 -31 l117 -26 -4 -54 c-2 -30 -5 -57 -8 -61 -2 -5 -58 -8 -124 -8 l-119 0 0 -57 c0 -32 4 -64 9 -71 6 -10 40 -14 127 -15 l119 -2 9 -53 c5 -32 5 -57 0 -62 -8 -8 -94 -32 -202 -56 -13 -2 -25 -11 -28 -18 -8 -21 26 -127 43 -133 8 -3 47 4 86 15 40 12 90 24 112 27 39 7 41 6 58 -32 23 -54 22 -60 -15 -79 -38 -20 -135 -82 -160 -102 -15 -13 -15 -16 5 -50 11 -20 29 -47 40 -59 l20 -23 36 22 c20 12 66 42 104 66 l67 44 40 -43 c21 -24 39 -48 40 -52 0 -4 -34 -47 -77 -94 l-76 -86 47 -44 c26 -23 51 -43 56 -43 4 0 42 36 84 81 68 74 76 80 94 67 42 -30 82 -67 82 -77 0 -6 -27 -50 -60 -98 -58 -83 -59 -87 -43 -106 32 -34 102 -70 116 -59 6 6 35 47 62 91 28 44 57 80 65 81 8 0 34 -7 57 -16 52 -20 53 -27 13 -136 -16 -45 -30 -88 -30 -95 0 -15 90 -63 119 -63 15 0 28 23 61 105 23 58 46 108 52 111 14 9 107 -18 112 -33 5 -13 -8 -139 -20 -195 -5 -24 -2 -28 33 -37 21 -6 55 -11 75 -11 36 0 37 1 43 47 4 27 12 77 18 113 l12 65 55 7 c38 5 58 3 66 -5 6 -7 18 -59 27 -116 9 -57 20 -108 25 -113 10 -10 102 -1 122 12 11 7 11 27 1 112 -7 56 -15 111 -17 120 -4 13 8 20 52 33 31 9 60 13 64 8 3 -4 26 -52 50 -106 25 -54 47 -100 51 -102 12 -8 121 28 126 42 3 7 -11 50 -30 96 -57 133 -58 129 10 157 31 14 60 26 64 28 3 1 29 -32 58 -75 82 -125 74 -117 113 -97 45 23 88 56 88 67 0 5 -22 41 -49 81 -80 119 -78 112 -34 151 21 19 43 35 49 35 5 0 50 -37 99 -82 l89 -81 43 47 c24 27 43 54 43 61 0 7 -19 31 -41 52 -57 52 -109 106 -109 113 0 3 15 22 33 43 l32 38 102 -62 c85 -51 105 -60 117 -49 16 13 66 97 66 110 0 9 -151 100 -166 100 -5 0 -17 7 -27 14 -16 13 -16 16 8 71 20 45 29 56 43 50 79 -30 195 -66 200 -60 15 15 51 130 43 138 -5 5 -55 22 -111 38 -56 15 -104 29 -105 31 -2 2 2 28 9 58 l13 55 118 0 c134 0 133 -1 134 87 1 57 1 57 -144 61 l-100 2 -3 59 c-2 32 1 63 5 67 5 5 52 14 106 20 129 16 132 18 116 98 -6 34 -17 65 -23 67 -13 5 -189 -28 -218 -40 -13 -6 -19 3 -33 49 -9 32 -14 63 -12 69 3 6 31 20 63 30 33 10 81 27 107 39 44 18 48 22 42 46 -13 50 -44 111 -58 111 -7 0 -58 -18 -112 -40 -54 -22 -103 -40 -109 -40 -15 0 -64 92 -51 96 6 2 41 24 78 49 38 25 73 45 77 45 29 0 8 77 -30 112 -11 11 -20 28 -20 40 0 22 37 88 48 88 4 -1 30 -7 57 -14 l50 -13 3 -79 c3 -93 15 -111 77 -116 l44 -3 11 45 c7 25 17 65 24 90 l12 45 60 3 c41 2 64 -1 71 -10 6 -7 17 -51 25 -98 l14 -85 44 -3 c24 -2 54 -1 67 3 23 5 23 7 16 108 l-6 103 52 12 c87 20 85 21 121 -75 18 -49 36 -92 41 -97 11 -12 118 20 125 37 2 7 -9 55 -25 107 -17 52 -29 96 -27 97 13 13 101 51 110 47 6 -2 33 -36 60 -74 27 -39 51 -70 54 -70 8 0 96 52 113 67 16 13 12 21 -38 96 l-55 81 49 43 c26 23 51 42 54 43 3 0 40 -32 83 -70 42 -38 82 -70 90 -70 13 0 96 83 96 96 0 4 -36 40 -80 81 l-79 74 32 44 c18 24 37 44 43 44 6 1 50 -24 99 -54 48 -30 91 -55 96 -55 9 0 79 105 79 118 0 10 -55 45 -138 87 -40 20 -72 40 -70 44 28 68 55 121 61 121 4 0 46 -16 94 -35 48 -19 92 -35 98 -35 16 0 69 104 62 122 -3 9 -50 33 -104 54 -54 20 -99 38 -100 39 -9 6 23 118 34 122 7 3 63 -2 123 -12 114 -17 130 -15 130 13 0 10 34 38 86 71 l86 53 34 -33 c41 -40 42 -48 8 -80 -14 -13 -49 -50 -77 -83 l-51 -59 49 -43 c28 -24 55 -44 62 -44 6 0 45 37 86 81 l75 82 51 -37 c28 -21 51 -41 51 -44 0 -9 -24 -45 -84 -126 -36 -50 -45 -70 -37 -80 16 -19 110 -68 120 -62 4 3 37 45 71 93 35 49 65 90 67 93 7 8 113 -54 113 -65 0 -6 -20 -53 -45 -104 -25 -51 -45 -98 -45 -104 0 -7 26 -24 58 -39 43 -20 60 -24 70 -15 8 6 36 55 63 110 45 88 53 98 73 93 47 -12 96 -37 96 -49 0 -7 -13 -53 -30 -102 -35 -103 -37 -125 -12 -125 9 0 37 -7 62 -16 54 -19 56 -17 94 94 46 133 35 122 106 107 34 -7 64 -15 67 -19 3 -3 1 -43 -5 -88 -18 -125 -16 -147 11 -152 62 -13 106 -15 112 -6 3 6 13 58 22 118 8 59 18 111 22 115 4 4 33 5 64 1 l56 -7 6 -76 c3 -42 10 -94 13 -116 l7 -39 55 2 c93 5 88 -3 86 129 l-1 116 58 12 c32 6 60 9 62 5 2 -3 17 -55 34 -114 16 -60 32 -111 35 -113 3 -3 33 3 68 14 42 12 64 24 66 36 2 10 -9 60 -23 112 -15 52 -25 101 -22 109 3 7 25 20 50 29 l44 15 32 -67 c18 -36 44 -85 57 -108 l24 -42 60 26 c34 15 60 33 60 41 0 8 -21 59 -47 113 -25 55 -44 101 -42 102 17 13 99 57 107 57 5 0 38 -43 73 -95 35 -52 70 -95 78 -95 25 0 122 70 114 83 -19 31 -87 135 -104 159 l-19 28 47 35 c27 19 53 34 59 32 6 -1 44 -39 84 -84 40 -46 76 -83 80 -83 15 0 110 81 110 93 0 12 -48 73 -112 142 -16 16 -28 33 -28 37 0 4 20 29 44 55 l45 48 43 -33 c54 -41 144 -101 161 -108 21 -8 91 104 77 121 -6 7 -49 39 -95 71 -47 31 -85 60 -85 63 0 3 15 29 32 59 39 63 34 63 170 -1 71 -34 99 -43 106 -34 8 12 52 111 52 120 0 6 -196 97 -209 97 -6 0 -11 4 -11 10 0 9 47 121 54 128 2 1 54 -13 115 -34 61 -20 117 -34 124 -31 18 7 53 125 41 137 -5 5 -59 24 -119 42 l-111 33 16 62 c9 34 19 65 22 68 5 6 73 -4 199 -29 30 -6 41 11 49 75 4 35 6 67 4 70 -2 4 -55 15 -117 24 l-113 18 4 61 c2 34 9 66 14 73 7 8 49 13 121 15 l112 3 3 45 c2 24 1 59 -3 77 l-6 33 -123 -7 -123 -6 -11 63 c-7 35 -11 65 -9 66 1 1 56 15 122 31 l120 29 -1 30 c-1 16 -7 49 -14 73 l-11 43 -49 -6 c-26 -4 -81 -15 -121 -26 -40 -10 -75 -17 -78 -15 -12 12 -41 119 -34 125 4 4 46 19 93 34 158 49 154 45 121 131 -12 32 -25 51 -37 53 -11 1 -66 -13 -123 -33 -58 -19 -110 -35 -117 -35 -14 0 -67 107 -59 120 2 4 46 24 97 45 134 56 133 54 95 127 -18 33 -37 63 -44 65 -7 3 -60 -21 -118 -52 -58 -31 -109 -54 -113 -51 -4 2 -22 25 -40 50 l-32 45 95 77 c52 42 95 78 95 81 0 2 -19 30 -42 61 -23 31 -43 58 -44 60 -5 9 -54 -27 -131 -95 l-85 -75 -49 48 c-27 26 -49 51 -49 54 0 3 34 45 75 93 52 60 73 91 68 101 -13 23 -94 86 -103 81 -5 -3 -41 -46 -81 -95 -40 -50 -77 -90 -81 -90 -16 0 -118 73 -118 84 0 6 25 47 55 90 30 44 55 87 55 95 -1 18 -105 85 -119 77 -4 -3 -35 -46 -67 -95 -32 -50 -65 -90 -72 -91 -15 0 -112 48 -112 56 0 3 22 52 49 109 36 76 46 107 38 113 -28 23 -118 55 -128 45 -5 -5 -29 -54 -53 -109 -24 -54 -48 -99 -52 -99 -40 2 -124 31 -124 42 0 8 11 60 25 115 14 55 24 102 21 105 -9 9 -119 34 -131 29 -7 -2 -22 -46 -35 -98 -12 -51 -24 -101 -27 -110 -5 -19 -38 -23 -105 -12 l-37 7 -3 116 -3 116 -72 3 -73 3 0 -119 0 -119 -37 -7 c-75 -12 -102 -8 -107 17 -32 152 -39 183 -46 191 -13 14 -131 -4 -137 -21 -3 -8 4 -54 16 -102 31 -128 32 -125 -40 -146 -72 -20 -76 -17 -104 60 -38 106 -58 145 -74 145 -15 0 -121 -46 -121 -52 0 -2 18 -50 40 -107 22 -58 39 -106 37 -107 -1 -1 -24 -13 -52 -28 -76 -40 -87 -36 -133 42 -23 37 -52 80 -65 96 l-24 29 -56 -37 c-32 -21 -57 -42 -57 -47 0 -5 30 -52 66 -105 37 -52 64 -97 61 -100 -10 -10 -111 -74 -117 -74 -3 0 -35 40 -71 90 -35 49 -72 92 -82 95 -19 7 -103 -54 -114 -82 -3 -7 5 -27 18 -43 13 -16 47 -58 76 -93 l51 -65 -37 -36 c-20 -20 -43 -36 -50 -36 -7 0 -47 32 -89 70 -42 39 -83 69 -91 68 -14 -3 -100 -105 -101 -119 0 -4 41 -37 90 -74 50 -37 90 -70 90 -73 0 -7 -72 -112 -76 -112 -2 0 -52 25 -110 55 -59 31 -108 54 -109 53 -6 -6 -75 -135 -75 -139 0 -3 45 -27 100 -54 55 -27 100 -55 100 -62 0 -24 -44 -103 -57 -103 -7 0 -54 16 -103 35 -49 19 -96 35 -104 35 -8 0 -23 -22 -34 -52 -11 -29 -23 -60 -27 -69 -4 -12 9 -21 62 -41 37 -15 85 -31 105 -38 21 -6 40 -15 43 -20 3 -5 -2 -34 -10 -65 -13 -44 -20 -55 -33 -51 -74 22 -194 47 -205 43 -15 -5 -42 -121 -33 -136 3 -4 22 -11 43 -14 61 -10 164 -34 170 -40 3 -3 2 -33 -2 -66 l-7 -61 -113 0 -113 0 -4 -27 c-2 -16 -2 -49 0 -75 l4 -47 106 -3 107 -3 8 -54 c4 -30 4 -58 -1 -63 -4 -4 -57 -17 -116 -29 -60 -12 -116 -28 -125 -35 -9 -7 -36 -29 -61 -48 l-45 -36 -43 44 -44 43 66 89 c36 49 65 95 64 103 -2 8 -12 19 -23 25 -11 6 -31 19 -44 29 -13 9 -29 17 -36 17 -7 0 -39 -40 -71 -90 -32 -49 -63 -90 -68 -90 -15 0 -106 61 -106 71 0 5 18 45 40 89 22 44 40 84 40 90 0 11 -92 60 -112 60 -7 0 -31 -40 -52 -88 -22 -48 -43 -91 -47 -95 -10 -12 -130 23 -136 40 -3 8 2 52 11 98 9 46 16 90 16 99 0 20 -106 51 -125 36 -7 -6 -18 -38 -24 -73 -7 -34 -17 -79 -24 -101 l-11 -38 -50 6 c-28 3 -59 6 -68 6 -15 0 -18 14 -20 123 l-3 122 -65 0 -65 0 -5 -117 c-3 -64 -8 -119 -12 -123 -3 -3 -34 -7 -69 -8 l-62 -2 -24 95 c-13 52 -25 100 -28 107 -4 12 -52 4 -107 -20 -33 -14 -33 -22 -9 -135 l18 -83 -55 -25 c-31 -13 -59 -21 -63 -17 -3 5 -14 37 -22 72 -9 35 -18 64 -19 65 -2 1 -30 14 -63 30 -33 15 -71 35 -84 45 l-23 17 33 52 c17 29 37 52 43 52 6 0 47 -13 89 -30 109 -42 121 -40 147 16 11 26 20 52 20 59 0 11 -117 73 -167 89 -28 9 -29 20 -1 85 16 39 25 50 37 46 64 -25 234 -66 242 -58 18 18 43 123 31 135 -6 6 -61 24 -124 40 -62 16 -114 31 -116 33 -2 2 3 31 10 65 l13 62 62 -6 c35 -3 92 -9 127 -12 l63 -7 12 33 c16 47 14 109 -3 116 -8 3 -66 11 -128 18 l-113 11 0 70 0 70 105 2 c158 4 151 1 148 81 l-3 67 -121 1 c-67 1 -126 4 -132 8 -11 7 -28 113 -19 122 7 7 111 31 172 39 79 10 81 13 66 87 -7 35 -17 67 -21 72 -8 8 -49 3 -242 -31 -24 -5 -28 -1 -44 52 -22 68 -29 62 123 110 62 20 114 39 117 43 2 4 -8 37 -23 72 -25 61 -29 65 -57 62 -16 -2 -70 -19 -120 -38 -51 -19 -98 -34 -106 -34 -14 0 -58 79 -58 103 0 6 44 38 98 69 53 32 103 62 110 67 12 7 11 14 -3 42 -10 19 -28 48 -41 66 l-24 32 -111 -69 c-60 -39 -114 -70 -119 -70 -11 0 -80 83 -80 97 0 5 43 44 95 87 52 42 95 83 95 90 0 16 -87 116 -101 116 -5 0 -50 -39 -99 -86 l-89 -86 -51 42 c-27 23 -50 47 -50 53 1 7 34 50 75 96 40 46 71 89 69 95 -8 17 -100 86 -116 86 -7 0 -42 -37 -77 -81 -35 -44 -69 -83 -76 -85 -13 -5 -125 61 -125 74 0 4 12 27 26 52 14 25 41 73 60 106 l34 62 -52 30 c-93 52 -86 55 -147 -63 -29 -58 -57 -108 -62 -111 -13 -8 -129 37 -129 50 0 6 16 53 35 104 19 51 35 98 35 106 0 14 -29 28 -93 45 -46 12 -52 4 -91 -114 -37 -114 -32 -109 -107 -89 -35 10 -67 20 -71 23 -3 3 5 55 18 115 14 59 26 113 27 119 3 15 -131 43 -143 31 -5 -5 -19 -57 -31 -114 -11 -58 -26 -111 -33 -118 -9 -9 -27 -11 -64 -6 l-52 7 0 128 0 129 -27 0 c-16 0 -44 3 -63 6 -25 4 -40 1 -48 -8z m353 -632 c123 -31 235 -74 235 -90 0 -10 -116 -209 -291 -501 l-30 -50 -177 0 c-97 0 -189 -3 -203 -7 -26 -8 -30 -2 -125 165 -54 94 -128 223 -166 286 -50 84 -65 117 -56 123 32 19 191 72 273 89 135 28 401 21 540 -15z m638 -304 c192 -161 311 -333 387 -560 32 -95 65 -265 56 -288 -4 -12 -65 -14 -359 -14 l-354 0 -17 62 c-22 78 -76 183 -123 238 -30 35 -34 45 -26 63 6 12 74 130 153 262 133 226 184 305 196 305 3 0 42 -31 87 -68z m-1631 -127 c59 -99 134 -226 168 -283 l61 -103 -32 -37 c-57 -65 -107 -151 -134 -233 l-27 -79 -354 0 c-311 0 -355 2 -361 16 -3 8 2 54 12 102 49 248 151 445 319 616 76 78 215 187 231 183 6 -2 58 -84 117 -182z m845 -556 c77 -37 144 -109 173 -187 33 -87 25 -195 -20 -280 -37 -70 -81 -110 -165 -148 -51 -24 -66 -26 -143 -22 -142 7 -235 67 -291 187 -22 47 -26 70 -26 146 0 79 3 97 28 145 54 105 142 172 249 188 76 12 124 4 195 -29z m5281 -183 c144 -31 379 -140 477 -220 l30 -25 -36 -38 c-19 -21 -95 -103 -169 -183 -73 -80 -165 -177 -203 -217 l-69 -72 -37 16 c-124 54 -278 74 -385 49 -38 -9 -70 -15 -71 -14 -1 2 -42 73 -90 158 -48 85 -123 216 -166 291 -44 75 -79 141 -79 148 0 22 191 90 329 116 98 19 366 13 469 -9z m-1071 -298 c113 -189 299 -509 316 -544 l20 -41 -41 -54 c-56 -74 -99 -169 -119 -263 -13 -60 -22 -80 -37 -87 -12 -4 -100 -26 -196 -48 -195 -45 -454 -107 -486 -116 -18 -6 -22 -1 -28 25 -18 91 6 318 49 465 71 242 218 480 391 631 37 33 72 64 78 71 17 19 20 17 53 -39z m-2967 -5 c0 -5 -7 -48 -16 -97 -45 -258 -165 -482 -352 -657 -84 -79 -188 -153 -201 -145 -5 3 -53 83 -107 178 -54 95 -129 224 -166 286 l-68 114 43 48 c46 51 106 157 127 225 7 22 15 43 17 48 2 4 166 7 364 7 197 0 359 -3 359 -7z m-2011 -84 c24 -56 79 -147 137 -226 15 -21 15 -24 -4 -50 -11 -15 -78 -127 -150 -248 -72 -121 -142 -239 -156 -262 -14 -24 -29 -43 -33 -43 -18 0 -154 110 -223 180 -156 159 -267 369 -315 598 -8 40 -15 84 -15 98 l0 24 366 -2 365 -3 28 -66z m6877 -172 c172 -230 257 -494 257 -797 0 -144 -29 -336 -54 -366 -8 -10 -28 -4 -82 21 -40 18 -124 56 -187 83 -63 27 -172 75 -242 106 -70 31 -132 56 -138 56 -7 0 -8 29 -4 83 8 107 -13 208 -65 310 l-39 78 151 162 c84 90 190 204 236 255 46 51 89 92 95 92 6 0 39 -37 72 -83z m-6246 -242 c58 0 127 3 153 7 46 7 49 7 65 -23 9 -16 57 -99 106 -182 191 -328 200 -347 185 -362 -18 -17 -125 -50 -249 -77 -137 -29 -371 -35 -519 -14 -128 19 -301 70 -301 89 0 7 21 46 46 87 25 41 103 169 172 284 l125 208 56 -8 c31 -5 103 -9 161 -9z m5291 -238 c61 -35 114 -93 141 -152 18 -39 23 -68 23 -130 -1 -69 -4 -87 -30 -133 -100 -182 -338 -222 -496 -84 -20 17 -48 59 -64 93 -25 56 -27 70 -22 139 9 140 89 243 220 286 66 22 175 13 228 -19z m-3835 -222 c55 -31 65 -41 74 -76 6 -23 10 -42 8 -43 -2 -2 -19 -12 -39 -24 l-36 -22 -57 70 c-59 75 -62 80 -46 111 14 26 23 24 96 -16z m-145 -259 l-24 -25 -59 51 -59 51 28 29 27 29 55 -55 55 -55 -23 -25z m696 59 c16 -64 18 -196 3 -260 -39 -171 -203 -276 -380 -244 -73 13 -175 62 -235 113 l-40 35 23 43 c36 70 115 161 184 213 115 87 295 157 392 152 39 -2 40 -3 53 -52z m447 40 c161 -28 276 -87 400 -204 63 -60 116 -131 116 -154 0 -37 -164 -148 -263 -179 -120 -36 -237 -11 -324 70 -33 31 -75 106 -87 157 -11 46 -8 209 4 257 21 76 21 76 154 53z m-1374 -153 c14 -15 41 -40 60 -54 35 -27 35 -28 18 -55 -9 -15 -22 -28 -29 -28 -15 0 -100 145 -93 157 9 14 19 9 44 -20z m3499 -72 c53 -94 227 -244 305 -264 30 -7 30 -8 16 -146 -5 -52 -16 -176 -25 -276 -9 -99 -19 -202 -23 -230 l-8 -49 -38 2 c-57 4 -198 49 -295 94 -198 92 -410 268 -515 427 -57 87 -146 258 -146 282 0 14 25 24 118 48 64 17 218 57 342 90 124 33 230 60 236 61 6 1 21 -17 33 -39z m-3645 -40 c21 -33 36 -67 33 -75 -4 -8 -23 -23 -45 -34 -21 -11 -44 -27 -51 -35 -8 -9 -17 -16 -21 -16 -8 0 -84 160 -78 165 9 8 105 54 113 54 6 1 27 -26 49 -59z m2535 23 c16 -57 14 -69 -16 -83 -23 -10 -170 -59 -181 -60 -1 0 -16 21 -32 47 -32 51 -30 63 19 87 24 12 102 31 161 40 14 2 28 4 32 5 4 0 12 -16 17 -36z m2328 -127 c132 -57 413 -182 486 -216 15 -7 27 -16 27 -20 0 -4 -29 -45 -64 -91 -228 -302 -601 -506 -963 -528 -63 -3 -119 -4 -123 -1 -6 3 1 112 14 255 13 138 27 288 31 335 8 91 16 110 47 110 41 0 173 53 237 94 36 24 84 62 106 85 21 22 42 41 46 41 4 0 74 -29 156 -64z m-3587 -21 c41 -21 60 -53 60 -101 0 -72 -68 -116 -154 -100 -67 13 -107 97 -75 157 27 51 112 73 169 44z m1357 -175 c11 -25 19 -48 17 -52 -5 -7 -186 -68 -202 -68 -12 0 -43 103 -34 112 11 11 164 57 182 55 8 -1 25 -22 37 -47z m-2296 -70 c226 -93 323 -195 324 -340 0 -79 -28 -142 -95 -214 -34 -38 -73 -63 -165 -107 -66 -33 -126 -59 -132 -59 -19 0 -51 71 -79 178 -24 88 -26 109 -21 232 3 99 10 153 26 202 29 90 50 138 60 138 4 0 41 -14 82 -30z m1882 -43 c55 -137 71 -311 41 -453 -12 -60 -68 -211 -83 -227 -5 -5 -59 17 -121 48 -191 96 -264 188 -265 335 0 151 72 231 289 321 50 21 96 39 102 39 7 0 23 -28 37 -63z m-1363 38 c58 -30 79 -119 40 -168 -25 -31 -80 -51 -120 -42 -40 9 -90 67 -90 106 0 44 24 84 62 102 41 21 71 21 108 2z m834 -17 c52 -23 77 -97 52 -147 -22 -42 -54 -61 -103 -61 -60 0 -112 47 -120 107 -5 39 -2 46 30 78 28 28 42 35 76 35 22 0 51 -5 65 -12z m-381 -54 c63 -21 130 -84 163 -150 66 -134 7 -292 -133 -361 -182 -89 -398 41 -396 238 3 195 188 334 366 273z m1447 -96 c16 -22 30 -44 30 -49 0 -13 -167 -119 -187 -119 -11 0 -45 5 -76 11 l-57 12 0 52 0 53 123 40 c67 22 125 40 129 41 5 1 21 -18 38 -41z m-1874 -322 c29 -29 34 -41 34 -80 0 -61 -37 -105 -96 -113 -100 -13 -169 89 -115 171 26 39 57 55 105 56 30 0 45 -7 72 -34z m804 14 c89 -46 84 -168 -8 -207 -47 -20 -100 -5 -136 38 -79 93 34 225 144 169z m-390 -247 c22 -20 33 -40 37 -69 6 -50 -7 -78 -50 -104 -88 -54 -201 17 -183 113 16 83 131 118 196 60z m-440 -89 c111 -33 188 -107 220 -212 25 -80 25 -135 1 -236 -26 -108 -30 -112 -124 -92 -159 32 -315 113 -425 219 -48 46 -132 158 -132 176 0 25 157 119 245 147 56 18 152 17 215 -2z m915 2 c92 -24 265 -126 265 -156 0 -26 -90 -130 -169 -196 -131 -110 -324 -192 -465 -197 l-59 -2 -15 50 c-8 28 -15 97 -16 155 -1 95 2 111 26 162 73 156 253 232 433 184z m-1277 -548 c20 -20 14 -56 -17 -90 -15 -18 -33 -43 -40 -55 -15 -28 -31 -29 -65 -2 -21 16 -24 23 -13 33 6 7 34 38 61 70 54 61 56 62 74 44z m-574 -177 c437 -115 726 -484 726 -928 0 -209 -56 -378 -179 -540 -133 -176 -314 -293 -548 -355 -123 -32 -373 -33 -510 -1 -408 96 -693 419 -727 823 -7 84 9 235 34 328 65 238 259 475 481 588 102 51 225 90 344 108 73 11 302 -3 379 -23z m742 3 c19 -15 34 -33 34 -41 0 -8 -20 -35 -44 -61 l-45 -47 -35 34 c-20 19 -36 39 -36 45 0 9 79 96 88 96 2 0 19 -12 38 -26z"/> <path d="M3305 3623 c-68 -17 -123 -107 -112 -185 15 -110 134 -169 237 -116 84 43 112 134 67 219 -37 70 -111 101 -192 82z"/> <path d="M2650 3243 c-51 -27 -80 -76 -80 -137 0 -66 26 -115 76 -143 48 -28 96 -29 148 -3 108 52 121 202 25 271 -43 30 -122 35 -169 12z"/> <path d="M3870 3238 c-57 -39 -75 -72 -75 -138 0 -62 16 -95 66 -133 29 -21 95 -33 134 -23 38 10 102 72 115 112 24 73 -16 161 -87 190 -50 21 -115 18 -153 -8z"/> <path d="M3217 3171 c-148 -49 -252 -172 -279 -329 -31 -181 57 -354 222 -435 56 -28 77 -32 158 -35 83 -4 103 -1 169 23 188 69 303 277 259 469 -21 87 -44 131 -106 200 -76 83 -157 119 -275 123 -68 2 -104 -2 -148 -16z m223 -201 c88 -45 130 -154 100 -262 -35 -123 -195 -181 -307 -112 -57 36 -86 88 -91 166 -7 96 32 170 113 212 43 23 137 21 185 -4z"/> <path d="M3924 2590 c-51 -11 -93 -43 -114 -85 -58 -121 19 -240 151 -232 67 4 109 30 134 84 59 123 -42 260 -171 233z"/> <path d="M2633 2570 c-106 -64 -100 -223 10 -282 47 -25 117 -23 157 5 57 38 75 71 75 137 0 66 -18 99 -75 138 -43 29 -121 30 -167 2z"/> <path d="M3240 2238 c-51 -35 -73 -71 -78 -130 -4 -62 19 -106 78 -146 29 -20 44 -23 88 -20 64 6 99 29 130 89 42 80 11 184 -64 215 -51 21 -116 18 -154 -8z"/> </g> </svg>